# xmcd
#
# Track frame offsets: 
#        150
#        18701
#        36022
#        53927
#        71772
#        91892
#        109844
#        126562
#        143020
#        161478
#        181229
#        200551
#        220659
#        236832
#
# Disc length: 3384 seconds
#
# Revision: 0
# Processed by: cddbd v1.5.2PL0 Copyright (c) Steve Scherf et al.
# Submitted via: ExactAudioCopy v0.95b4
#
DISCID=cd0d360e
DTITLE=ดาวทองเสียงอิสาน - ดาวทองเสียงอิสาน
DYEAR=2006
DGENRE=Country
TTITLE0=แฟนเขาเด้อสู
TTITLE1=ไต้หวัน ใต้เขี'
TTITLE2=ความรักถูกหาร
TTITLE3=คนนอกกฏหมาย
TTITLE4=คนบ่มีแฟน
TTITLE5=อยากโชว์
TTITLE6=หมอลำแม่ลูกอ่อน
TTITLE7=ดาวทอง
TTITLE8=คนถูกหักหลัง
TTITLE9=เซาเหล้าสาเนาะ
TTITLE10=คอยอ้ายให้อกหัก
TTITLE11=ครองแชมป์ตำแหน่งช้ำ
TTITLE12=ชมรมคนซวดลวด
TTITLE13=แม่หม้ายไฟแนนซ์
EXTD=
EXTT0=
EXTT1=
EXTT2=
EXTT3=
EXTT4=
EXTT5=
EXTT6=
EXTT7=
EXTT8=
EXTT9=
EXTT10=
EXTT11=
EXTT12=
EXTT13=
PLAYORDER=
